<?xml version="1.0" encoding="UTF-8" standalone="no"?>
<svg
   id="flag-icons-us"
   viewBox="0 0 512 512"
   version="1.1"
   sodipodi:docname="us.svg"
   inkscape:version="1.1.2 (b8e25be833, 2022-02-05)"
   xmlns:inkscape="http://www.inkscape.org/namespaces/inkscape"
   xmlns:sodipodi="http://sodipodi.sourceforge.net/DTD/sodipodi-0.dtd"
   xmlns="http://www.w3.org/2000/svg"
   xmlns:svg="http://www.w3.org/2000/svg">
  <defs
     id="defs856" />
  <sodipodi:namedview
     id="namedview854"
     pagecolor="#505050"
     bordercolor="#eeeeee"
     borderopacity="1"
     inkscape:pageshadow="0"
     inkscape:pageopacity="0"
     inkscape:pagecheckerboard="0"
     showgrid="false"
     inkscape:zoom="0.74023438"
     inkscape:cx="734.90237"
     inkscape:cy="390.41689"
     inkscape:window-width="1920"
     inkscape:window-height="1009"
     inkscape:window-x="-8"
     inkscape:window-y="-8"
     inkscape:window-maximized="1"
     inkscape:current-layer="g851" />
  <g
     fill-rule="evenodd"
     id="g851">
    <g
       stroke-width="1pt"
       id="g845"
       transform="scale(1.0526213,0.99999023)">
      <path
         fill="#bd3d44"
         d="M 0,0 H 247 V 10 H 0 Z M 0,20 H 247 V 30 H 0 Z M 0,40 H 247 V 50 H 0 Z M 0,60 H 247 V 70 H 0 Z M 0,80 H 247 V 90 H 0 Z m 0,20 h 247 v 10 H 0 Z m 0,20 h 247 v 10 H 0 Z"
         transform="scale(3.9385)"
         id="path841" />
      <path
         fill="#ffffff"
         d="M 0,10 H 247 V 20 H 0 Z M 0,30 H 247 V 40 H 0 Z M 0,50 H 247 V 60 H 0 Z M 0,70 H 247 V 80 H 0 Z m 0,20 h 247 v 10 H 0 Z m 0,20 h 247 v 10 H 0 Z"
         transform="scale(3.9385)"
         id="path843" />
    </g>
    <path
       fill="#192f5d"
       d="M0 0h98.8v70H0z"
       transform="scale(3.9385)"
       id="path847" />
    <path
       fill="#fff"
       d="m8.2 3 1 2.8H12L9.7 7.5l.9 2.7-2.4-1.7L6 10.2l.9-2.7-2.4-1.7h3zm16.5 0 .9 2.8h2.9l-2.4 1.7 1 2.7-2.4-1.7-2.4 1.7 1-2.7-2.4-1.7h2.9zm16.5 0 .9 2.8H45l-2.4 1.7 1 2.7-2.4-1.7-2.4 1.7 1-2.7-2.4-1.7h2.9zm16.4 0 1 2.8h2.8l-2.3 1.7.9 2.7-2.4-1.7-2.3 1.7.9-2.7-2.4-1.7h3zm16.5 0 .9 2.8h2.9l-2.4 1.7 1 2.7L74 8.5l-2.3 1.7.9-2.7-2.4-1.7h2.9zm16.5 0 .9 2.8h2.9L92 7.5l1 2.7-2.4-1.7-2.4 1.7 1-2.7-2.4-1.7h2.9zm-74.1 7 .9 2.8h2.9l-2.4 1.7 1 2.7-2.4-1.7-2.4 1.7 1-2.7-2.4-1.7h2.9zm16.4 0 1 2.8h2.8l-2.3 1.7.9 2.7-2.4-1.7-2.3 1.7.9-2.7-2.4-1.7h3zm16.5 0 .9 2.8h2.9l-2.4 1.7 1 2.7-2.4-1.7-2.4 1.7 1-2.7-2.4-1.7h2.9zm16.5 0 .9 2.8h2.9l-2.4 1.7 1 2.7-2.4-1.7-2.4 1.7 1-2.7-2.4-1.7H65zm16.4 0 1 2.8H86l-2.3 1.7.9 2.7-2.4-1.7-2.3 1.7.9-2.7-2.4-1.7h3zm-74 7 .8 2.8h3l-2.4 1.7.9 2.7-2.4-1.7L6 24.2l.9-2.7-2.4-1.7h3zm16.4 0 .9 2.8h2.9l-2.3 1.7.9 2.7-2.4-1.7-2.3 1.7.9-2.7-2.4-1.7h2.9zm16.5 0 .9 2.8H45l-2.4 1.7 1 2.7-2.4-1.7-2.4 1.7 1-2.7-2.4-1.7h2.9zm16.4 0 1 2.8h2.8l-2.3 1.7.9 2.7-2.4-1.7-2.3 1.7.9-2.7-2.4-1.7h3zm16.5 0 .9 2.8h2.9l-2.3 1.7.9 2.7-2.4-1.7-2.3 1.7.9-2.7-2.4-1.7h2.9zm16.5 0 .9 2.8h2.9L92 21.5l1 2.7-2.4-1.7-2.4 1.7 1-2.7-2.4-1.7h2.9zm-74.1 7 .9 2.8h2.9l-2.4 1.7 1 2.7-2.4-1.7-2.4 1.7 1-2.7-2.4-1.7h2.9zm16.4 0 1 2.8h2.8l-2.3 1.7.9 2.7-2.4-1.7-2.3 1.7.9-2.7-2.4-1.7h3zm16.5 0 .9 2.8h2.9l-2.3 1.7.9 2.7-2.4-1.7-2.3 1.7.9-2.7-2.4-1.7h2.9zm16.5 0 .9 2.8h2.9l-2.4 1.7 1 2.7-2.4-1.7-2.4 1.7 1-2.7-2.4-1.7H65zm16.4 0 1 2.8H86l-2.3 1.7.9 2.7-2.4-1.7-2.3 1.7.9-2.7-2.4-1.7h3zm-74 7 .8 2.8h3l-2.4 1.7.9 2.7-2.4-1.7L6 38.2l.9-2.7-2.4-1.7h3zm16.4 0 .9 2.8h2.9l-2.3 1.7.9 2.7-2.4-1.7-2.3 1.7.9-2.7-2.4-1.7h2.9zm16.5 0 .9 2.8H45l-2.4 1.7 1 2.7-2.4-1.7-2.4 1.7 1-2.7-2.4-1.7h2.9zm16.4 0 1 2.8h2.8l-2.3 1.7.9 2.7-2.4-1.7-2.3 1.7.9-2.7-2.4-1.7h3zm16.5 0 .9 2.8h2.9l-2.3 1.7.9 2.7-2.4-1.7-2.3 1.7.9-2.7-2.4-1.7h2.9zm16.5 0 .9 2.8h2.9L92 35.5l1 2.7-2.4-1.7-2.4 1.7 1-2.7-2.4-1.7h2.9zm-74.1 7 .9 2.8h2.9l-2.4 1.7 1 2.7-2.4-1.7-2.4 1.7 1-2.7-2.4-1.7h2.9zm16.4 0 1 2.8h2.8l-2.3 1.7.9 2.7-2.4-1.7-2.3 1.7.9-2.7-2.4-1.7h3zm16.5 0 .9 2.8h2.9l-2.3 1.7.9 2.7-2.4-1.7-2.3 1.7.9-2.7-2.4-1.7h2.9zm16.5 0 .9 2.8h2.9l-2.4 1.7 1 2.7-2.4-1.7-2.4 1.7 1-2.7-2.4-1.7H65zm16.4 0 1 2.8H86l-2.3 1.7.9 2.7-2.4-1.7-2.3 1.7.9-2.7-2.4-1.7h3zm-74 7 .8 2.8h3l-2.4 1.7.9 2.7-2.4-1.7L6 52.2l.9-2.7-2.4-1.7h3zm16.4 0 .9 2.8h2.9l-2.3 1.7.9 2.7-2.4-1.7-2.3 1.7.9-2.7-2.4-1.7h2.9zm16.5 0 .9 2.8H45l-2.4 1.7 1 2.7-2.4-1.7-2.4 1.7 1-2.7-2.4-1.7h2.9zm16.4 0 1 2.8h2.8l-2.3 1.7.9 2.7-2.4-1.7-2.3 1.7.9-2.7-2.4-1.7h3zm16.5 0 .9 2.8h2.9l-2.3 1.7.9 2.7-2.4-1.7-2.3 1.7.9-2.7-2.4-1.7h2.9zm16.5 0 .9 2.8h2.9L92 49.5l1 2.7-2.4-1.7-2.4 1.7 1-2.7-2.4-1.7h2.9zm-74.1 7 .9 2.8h2.9l-2.4 1.7 1 2.7-2.4-1.7-2.4 1.7 1-2.7-2.4-1.7h2.9zm16.4 0 1 2.8h2.8l-2.3 1.7.9 2.7-2.4-1.7-2.3 1.7.9-2.7-2.4-1.7h3zm16.5 0 .9 2.8h2.9l-2.3 1.7.9 2.7-2.4-1.7-2.3 1.7.9-2.7-2.4-1.7h2.9zm16.5 0 .9 2.8h2.9l-2.4 1.7 1 2.7-2.4-1.7-2.4 1.7 1-2.7-2.4-1.7H65zm16.4 0 1 2.8H86l-2.3 1.7.9 2.7-2.4-1.7-2.3 1.7.9-2.7-2.4-1.7h3zm-74 7 .8 2.8h3l-2.4 1.7.9 2.7-2.4-1.7L6 66.2l.9-2.7-2.4-1.7h3zm16.4 0 .9 2.8h2.9l-2.3 1.7.9 2.7-2.4-1.7-2.3 1.7.9-2.7-2.4-1.7h2.9zm16.5 0 .9 2.8H45l-2.4 1.7 1 2.7-2.4-1.7-2.4 1.7 1-2.7-2.4-1.7h2.9zm16.4 0 1 2.8h2.8l-2.3 1.7.9 2.7-2.4-1.7-2.3 1.7.9-2.7-2.4-1.7h3zm16.5 0 .9 2.8h2.9l-2.3 1.7.9 2.7-2.4-1.7-2.3 1.7.9-2.7-2.4-1.7h2.9zm16.5 0 .9 2.8h2.9L92 63.5l1 2.7-2.4-1.7-2.4 1.7 1-2.7-2.4-1.7h2.9z"
       transform="scale(3.9385)"
       id="path849" />
  </g>
</svg>
